<svg width="90" height="14" viewBox="0 0 90 14" fill="none" xmlns="http://www.w3.org/2000/svg">
<g clip-path="url(#clip0_114_458)">
<path d="M11.3554 13.6006L6.99964 10.3993L2.64389 13.6006L4.31631 8.43055L-0.0371094 5.24963H5.33772L6.99964 0.0708008L8.66156 5.24963H14.0358L9.68297 8.43055L11.3554 13.6006ZM6.99964 8.95147L9.13347 10.5201L8.31681 7.98605L10.4629 6.4163H7.81047L6.99964 3.88988L6.18881 6.4163H3.53581L5.68422 7.98605L4.86756 10.5201L6.99964 8.95147Z" fill="#454444"/>
</g>
<g clip-path="url(#clip1_114_458)">
<path d="M30.3554 13.6006L25.9996 10.3993L21.6439 13.6006L23.3163 8.43055L18.9629 5.24963H24.3377L25.9996 0.0708008L27.6616 5.24963H33.0358L28.683 8.43055L30.3554 13.6006ZM25.9996 8.95147L28.1335 10.5201L27.3168 7.98605L29.4629 6.4163H26.8105L25.9996 3.88988L25.1888 6.4163H22.5358L24.6842 7.98605L23.8676 10.5201L25.9996 8.95147Z" fill="#454444"/>
</g>
<g clip-path="url(#clip2_114_458)">
<path d="M49.3554 13.6006L44.9996 10.3993L40.6439 13.6006L42.3163 8.43055L37.9629 5.24963H43.3377L44.9996 0.0708008L46.6616 5.24963H52.0358L47.683 8.43055L49.3554 13.6006ZM44.9996 8.95147L47.1335 10.5201L46.3168 7.98605L48.4629 6.4163H45.8105L44.9996 3.88988L44.1888 6.4163H41.5358L43.6842 7.98605L42.8676 10.5201L44.9996 8.95147Z" fill="#454444"/>
</g>
<g clip-path="url(#clip3_114_458)">
<path d="M68.3554 13.6006L63.9996 10.3993L59.6439 13.6006L61.3163 8.43055L56.9629 5.24963H62.3377L63.9996 0.0708008L65.6616 5.24963H71.0358L66.683 8.43055L68.3554 13.6006ZM63.9996 8.95147L66.1335 10.5201L65.3168 7.98605L67.4629 6.4163H64.8105L63.9996 3.88988L63.1888 6.4163H60.5358L62.6842 7.98605L61.8676 10.5201L63.9996 8.95147Z" fill="#454444"/>
</g>
<g clip-path="url(#clip4_114_458)">
<path d="M87.3554 13.6006L82.9996 10.3993L78.6439 13.6006L80.3163 8.43055L75.9629 5.24963H81.3377L82.9996 0.0708008L84.6616 5.24963H90.0358L85.683 8.43055L87.3554 13.6006ZM82.9996 8.95147L85.1335 10.5201L84.3168 7.98605L86.4629 6.4163H83.8105L82.9996 3.88988L82.1888 6.4163H79.5358L81.6842 7.98605L80.8676 10.5201L82.9996 8.95147Z" fill="#454444"/>
</g>
<defs>
<clipPath id="clip0_114_458">
<rect width="14" height="14" fill="white"/>
</clipPath>
<clipPath id="clip1_114_458">
<rect width="14" height="14" fill="white" transform="translate(19)"/>
</clipPath>
<clipPath id="clip2_114_458">
<rect width="14" height="14" fill="white" transform="translate(38)"/>
</clipPath>
<clipPath id="clip3_114_458">
<rect width="14" height="14" fill="white" transform="translate(57)"/>
</clipPath>
<clipPath id="clip4_114_458">
<rect width="14" height="14" fill="white" transform="translate(76)"/>
</clipPath>
</defs>
</svg>
